<svg xmlns="http://www.w3.org/2000/svg" version="1.1" xmlns:xlink="http://www.w3.org/1999/xlink" xmlns:svgjs="http://svgjs.dev/svgjs" width="1440" height="560" preserveAspectRatio="none" viewBox="0 0 1440 560"><g mask="url(&quot;#SvgjsMask1020&quot;)" fill="none"><rect width="1440" height="560" x="0" y="0" fill="rgba(25, 25, 25, 1)"></rect><path d="M-86.24 389.78L-86.24 389.78" stroke="rgba(57, 53, 52, 1)" stroke-width="1.5"></path><path d="M-86.24 389.78L-40.79 503.96" stroke="rgba(57, 53, 52, 1)" stroke-width="1.5"></path><path d="M-86.24 389.78L52.62 362.7" stroke="rgba(57, 53, 52, 1)" stroke-width="1.5"></path><path d="M-86.24 389.78L74.48 526.25" stroke="rgba(57, 53, 52, 1)" stroke-width="1.5"></path><path d="M-86.24 389.78L73.48 647.6" stroke="rgba(57, 53, 52, 1)" stroke-width="1.5"></path><path d="M-86.24 389.78L-86.42 706.29" stroke="rgba(57, 53, 52, 1)" stroke-width="1.5"></path><path d="M-40.79 503.96L-40.79 503.96" stroke="rgba(57, 53, 52, 1)" stroke-width="1.5"></path><path d="M-40.79 503.96L74.48 526.25" stroke="rgba(57, 53, 52, 1)" stroke-width="1.5"></path><path d="M-86.42 706.29L-86.42 706.29" stroke="rgba(57, 53, 52, 1)" stroke-width="1.5"></path><path d="M-86.42 706.29L73.48 647.6" stroke="rgba(57, 53, 52, 1)" stroke-width="1.5"></path><path d="M-86.42 706.29L-40.79 503.96" stroke="rgba(57, 53, 52, 1)" stroke-width="1.5"></path><path d="M-86.42 706.29L74.48 526.25" stroke="rgba(57, 53, 52, 1)" stroke-width="1.5"></path><path d="M-86.42 706.29L210.74 689.11" stroke="rgba(57, 53, 52, 1)" stroke-width="1.5"></path><path d="M-86.42 706.29L223.41 523.39" stroke="rgba(57, 53, 52, 1)" stroke-width="1.5"></path><path d="M52.62 362.7L52.62 362.7" stroke="rgba(57, 53, 52, 1)" stroke-width="1.5"></path><path d="M52.62 362.7L74.48 526.25" stroke="rgba(57, 53, 52, 1)" stroke-width="1.5"></path><path d="M52.62 362.7L-40.79 503.96" stroke="rgba(57, 53, 52, 1)" stroke-width="1.5"></path><path d="M52.62 362.7L248.55 382.18" stroke="rgba(57, 53, 52, 1)" stroke-width="1.5"></path><path d="M52.62 362.7L223.41 523.39" stroke="rgba(57, 53, 52, 1)" stroke-width="1.5"></path><path d="M52.62 362.7L73.48 647.6" stroke="rgba(57, 53, 52, 1)" stroke-width="1.5"></path><path d="M74.48 526.25L74.48 526.25" stroke="rgba(57, 53, 52, 1)" stroke-width="1.5"></path><path d="M74.48 526.25L73.48 647.6" stroke="rgba(57, 53, 52, 1)" stroke-width="1.5"></path><path d="M74.48 526.25L223.41 523.39" stroke="rgba(57, 53, 52, 1)" stroke-width="1.5"></path><path d="M73.48 647.6L73.48 647.6" stroke="rgba(57, 53, 52, 1)" stroke-width="1.5"></path><path d="M73.48 647.6L210.74 689.11" stroke="rgba(57, 53, 52, 1)" stroke-width="1.5"></path><path d="M73.48 647.6L-40.79 503.96" stroke="rgba(57, 53, 52, 1)" stroke-width="1.5"></path><path d="M248.55 382.18L248.55 382.18" stroke="rgba(57, 53, 52, 1)" stroke-width="1.5"></path><path d="M248.55 382.18L223.41 523.39" stroke="rgba(57, 53, 52, 1)" stroke-width="1.5"></path><path d="M248.55 382.18L397.24 378.78" stroke="rgba(57, 53, 52, 1)" stroke-width="1.5"></path><path d="M223.41 523.39L223.41 523.39" stroke="rgba(57, 53, 52, 1)" stroke-width="1.5"></path><path d="M223.41 523.39L370.72 541.27" stroke="rgba(57, 53, 52, 1)" stroke-width="1.5"></path><path d="M223.41 523.39L210.74 689.11" stroke="rgba(57, 53, 52, 1)" stroke-width="1.5"></path><path d="M223.41 523.39L73.48 647.6" stroke="rgba(57, 53, 52, 1)" stroke-width="1.5"></path><path d="M223.41 523.39L397.24 378.78" stroke="rgba(57, 53, 52, 1)" stroke-width="1.5"></path><path d="M210.74 689.11L210.74 689.11" stroke="rgba(57, 53, 52, 1)" stroke-width="1.5"></path><path d="M210.74 689.11L386.19 687.69" stroke="rgba(57, 53, 52, 1)" stroke-width="1.5"></path><path d="M397.24 378.78L397.24 378.78" stroke="rgba(57, 53, 52, 1)" stroke-width="1.5"></path><path d="M397.24 378.78L552.89 375.25" stroke="rgba(57, 53, 52, 1)" stroke-width="1.5"></path><path d="M370.72 541.27L370.72 541.27" stroke="rgba(57, 53, 52, 1)" stroke-width="1.5"></path><path d="M370.72 541.27L386.19 687.69" stroke="rgba(57, 53, 52, 1)" stroke-width="1.5"></path><path d="M386.19 687.69L386.19 687.69" stroke="rgba(57, 53, 52, 1)" stroke-width="1.5"></path><path d="M386.19 687.69L512.07 654.46" stroke="rgba(57, 53, 52, 1)" stroke-width="1.5"></path><path d="M386.19 687.69L517.46 518.83" stroke="rgba(57, 53, 52, 1)" stroke-width="1.5"></path><path d="M552.89 375.25L552.89 375.25" stroke="rgba(57, 53, 52, 1)" stroke-width="1.5"></path><path d="M552.89 375.25L517.46 518.83" stroke="rgba(57, 53, 52, 1)" stroke-width="1.5"></path><path d="M552.89 375.25L702.94 406.04" stroke="rgba(57, 53, 52, 1)" stroke-width="1.5"></path><path d="M552.89 375.25L694.36 235.29" stroke="rgba(57, 53, 52, 1)" stroke-width="1.5"></path><path d="M552.89 375.25L370.72 541.27" stroke="rgba(57, 53, 52, 1)" stroke-width="1.5"></path><path d="M552.89 375.25L825.7 389.23" stroke="rgba(57, 53, 52, 1)" stroke-width="1.5"></path><path d="M517.46 518.83L517.46 518.83" stroke="rgba(57, 53, 52, 1)" stroke-width="1.5"></path><path d="M517.46 518.83L512.07 654.46" stroke="rgba(57, 53, 52, 1)" stroke-width="1.5"></path><path d="M512.07 654.46L512.07 654.46" stroke="rgba(57, 53, 52, 1)" stroke-width="1.5"></path><path d="M512.07 654.46L370.72 541.27" stroke="rgba(57, 53, 52, 1)" stroke-width="1.5"></path><path d="M512.07 654.46L793.41 674.31" stroke="rgba(57, 53, 52, 1)" stroke-width="1.5"></path><path d="M694.36 235.29L694.36 235.29" stroke="rgba(57, 53, 52, 1)" stroke-width="1.5"></path><path d="M694.36 235.29L803.96 257.02" stroke="rgba(57, 53, 52, 1)" stroke-width="1.5"></path><path d="M694.36 235.29L702.94 406.04" stroke="rgba(57, 53, 52, 1)" stroke-width="1.5"></path><path d="M694.36 235.29L835.91 92.46" stroke="rgba(57, 53, 52, 1)" stroke-width="1.5"></path><path d="M694.36 235.29L825.7 389.23" stroke="rgba(57, 53, 52, 1)" stroke-width="1.5"></path><path d="M694.36 235.29L954.86 191.11" stroke="rgba(57, 53, 52, 1)" stroke-width="1.5"></path><path d="M702.94 406.04L702.94 406.04" stroke="rgba(57, 53, 52, 1)" stroke-width="1.5"></path><path d="M702.94 406.04L825.7 389.23" stroke="rgba(57, 53, 52, 1)" stroke-width="1.5"></path><path d="M835.91 92.46L835.91 92.46" stroke="rgba(57, 53, 52, 1)" stroke-width="1.5"></path><path d="M835.91 92.46L954.86 191.11" stroke="rgba(57, 53, 52, 1)" stroke-width="1.5"></path><path d="M835.91 92.46L1000.95 73.21" stroke="rgba(57, 53, 52, 1)" stroke-width="1.5"></path><path d="M835.91 92.46L803.96 257.02" stroke="rgba(57, 53, 52, 1)" stroke-width="1.5"></path><path d="M803.96 257.02L803.96 257.02" stroke="rgba(57, 53, 52, 1)" stroke-width="1.5"></path><path d="M803.96 257.02L825.7 389.23" stroke="rgba(57, 53, 52, 1)" stroke-width="1.5"></path><path d="M803.96 257.02L954.86 191.11" stroke="rgba(57, 53, 52, 1)" stroke-width="1.5"></path><path d="M803.96 257.02L960.78 339.39" stroke="rgba(57, 53, 52, 1)" stroke-width="1.5"></path><path d="M803.96 257.02L702.94 406.04" stroke="rgba(57, 53, 52, 1)" stroke-width="1.5"></path><path d="M825.7 389.23L825.7 389.23" stroke="rgba(57, 53, 52, 1)" stroke-width="1.5"></path><path d="M825.7 389.23L831.83 514.32" stroke="rgba(57, 53, 52, 1)" stroke-width="1.5"></path><path d="M831.83 514.32L831.83 514.32" stroke="rgba(57, 53, 52, 1)" stroke-width="1.5"></path><path d="M831.83 514.32L793.41 674.31" stroke="rgba(57, 53, 52, 1)" stroke-width="1.5"></path><path d="M831.83 514.32L702.94 406.04" stroke="rgba(57, 53, 52, 1)" stroke-width="1.5"></path><path d="M831.83 514.32L965.62 673.42" stroke="rgba(57, 53, 52, 1)" stroke-width="1.5"></path><path d="M831.83 514.32L960.78 339.39" stroke="rgba(57, 53, 52, 1)" stroke-width="1.5"></path><path d="M793.41 674.31L793.41 674.31" stroke="rgba(57, 53, 52, 1)" stroke-width="1.5"></path><path d="M793.41 674.31L965.62 673.42" stroke="rgba(57, 53, 52, 1)" stroke-width="1.5"></path><path d="M793.41 674.31L702.94 406.04" stroke="rgba(57, 53, 52, 1)" stroke-width="1.5"></path><path d="M983.57 -76.58L983.57 -76.58" stroke="rgba(57, 53, 52, 1)" stroke-width="1.5"></path><path d="M983.57 -76.58L1117.95 -100.11" stroke="rgba(57, 53, 52, 1)" stroke-width="1.5"></path><path d="M983.57 -76.58L1000.95 73.21" stroke="rgba(57, 53, 52, 1)" stroke-width="1.5"></path><path d="M983.57 -76.58L1108.98 56.39" stroke="rgba(57, 53, 52, 1)" stroke-width="1.5"></path><path d="M1000.95 73.21L1000.95 73.21" stroke="rgba(57, 53, 52, 1)" stroke-width="1.5"></path><path d="M1000.95 73.21L1108.98 56.39" stroke="rgba(57, 53, 52, 1)" stroke-width="1.5"></path><path d="M1000.95 73.21L954.86 191.11" stroke="rgba(57, 53, 52, 1)" stroke-width="1.5"></path><path d="M954.86 191.11L954.86 191.11" stroke="rgba(57, 53, 52, 1)" stroke-width="1.5"></path><path d="M954.86 191.11L1094.2 221.16" stroke="rgba(57, 53, 52, 1)" stroke-width="1.5"></path><path d="M954.86 191.11L960.78 339.39" stroke="rgba(57, 53, 52, 1)" stroke-width="1.5"></path><path d="M960.78 339.39L960.78 339.39" stroke="rgba(57, 53, 52, 1)" stroke-width="1.5"></path><path d="M960.78 339.39L825.7 389.23" stroke="rgba(57, 53, 52, 1)" stroke-width="1.5"></path><path d="M960.78 339.39L1094.2 221.16" stroke="rgba(57, 53, 52, 1)" stroke-width="1.5"></path><path d="M960.78 339.39L1150.37 339.73" stroke="rgba(57, 53, 52, 1)" stroke-width="1.5"></path><path d="M965.62 673.42L965.62 673.42" stroke="rgba(57, 53, 52, 1)" stroke-width="1.5"></path><path d="M965.62 673.42L1131.98 695.8" stroke="rgba(57, 53, 52, 1)" stroke-width="1.5"></path><path d="M1117.95 -100.11L1117.95 -100.11" stroke="rgba(57, 53, 52, 1)" stroke-width="1.5"></path><path d="M1117.95 -100.11L1108.98 56.39" stroke="rgba(57, 53, 52, 1)" stroke-width="1.5"></path><path d="M1117.95 -100.11L1305.98 -79.81" stroke="rgba(57, 53, 52, 1)" stroke-width="1.5"></path><path d="M1117.95 -100.11L1000.95 73.21" stroke="rgba(57, 53, 52, 1)" stroke-width="1.5"></path><path d="M1117.95 -100.11L1270.32 70.52" stroke="rgba(57, 53, 52, 1)" stroke-width="1.5"></path><path d="M1117.95 -100.11L1424.86 -107.66" stroke="rgba(57, 53, 52, 1)" stroke-width="1.5"></path><path d="M1108.98 56.39L1108.98 56.39" stroke="rgba(57, 53, 52, 1)" stroke-width="1.5"></path><path d="M1108.98 56.39L1270.32 70.52" stroke="rgba(57, 53, 52, 1)" stroke-width="1.5"></path><path d="M1108.98 56.39L1094.2 221.16" stroke="rgba(57, 53, 52, 1)" stroke-width="1.5"></path><path d="M1094.2 221.16L1094.2 221.16" stroke="rgba(57, 53, 52, 1)" stroke-width="1.5"></path><path d="M1094.2 221.16L1150.37 339.73" stroke="rgba(57, 53, 52, 1)" stroke-width="1.5"></path><path d="M1094.2 221.16L1242.31 226.36" stroke="rgba(57, 53, 52, 1)" stroke-width="1.5"></path><path d="M1094.2 221.16L1000.95 73.21" stroke="rgba(57, 53, 52, 1)" stroke-width="1.5"></path><path d="M1150.37 339.73L1150.37 339.73" stroke="rgba(57, 53, 52, 1)" stroke-width="1.5"></path><path d="M1150.37 339.73L1275.21 355.85" stroke="rgba(57, 53, 52, 1)" stroke-width="1.5"></path><path d="M1150.37 339.73L1242.31 226.36" stroke="rgba(57, 53, 52, 1)" stroke-width="1.5"></path><path d="M1162.41 531.81L1162.41 531.81" stroke="rgba(57, 53, 52, 1)" stroke-width="1.5"></path><path d="M1162.41 531.81L1276.95 526.5" stroke="rgba(57, 53, 52, 1)" stroke-width="1.5"></path><path d="M1162.41 531.81L1131.98 695.8" stroke="rgba(57, 53, 52, 1)" stroke-width="1.5"></path><path d="M1131.98 695.8L1131.98 695.8" stroke="rgba(57, 53, 52, 1)" stroke-width="1.5"></path><path d="M1131.98 695.8L1285.86 676.7" stroke="rgba(57, 53, 52, 1)" stroke-width="1.5"></path><path d="M1305.98 -79.81L1305.98 -79.81" stroke="rgba(57, 53, 52, 1)" stroke-width="1.5"></path><path d="M1305.98 -79.81L1424.86 -107.66" stroke="rgba(57, 53, 52, 1)" stroke-width="1.5"></path><path d="M1305.98 -79.81L1270.32 70.52" stroke="rgba(57, 53, 52, 1)" stroke-width="1.5"></path><path d="M1305.98 -79.81L1392.02 69.1" stroke="rgba(57, 53, 52, 1)" stroke-width="1.5"></path><path d="M1305.98 -79.81L1108.98 56.39" stroke="rgba(57, 53, 52, 1)" stroke-width="1.5"></path><path d="M1270.32 70.52L1270.32 70.52" stroke="rgba(57, 53, 52, 1)" stroke-width="1.5"></path><path d="M1270.32 70.52L1392.02 69.1" stroke="rgba(57, 53, 52, 1)" stroke-width="1.5"></path><path d="M1270.32 70.52L1242.31 226.36" stroke="rgba(57, 53, 52, 1)" stroke-width="1.5"></path><path d="M1242.31 226.36L1242.31 226.36" stroke="rgba(57, 53, 52, 1)" stroke-width="1.5"></path><path d="M1242.31 226.36L1275.21 355.85" stroke="rgba(57, 53, 52, 1)" stroke-width="1.5"></path><path d="M1275.21 355.85L1275.21 355.85" stroke="rgba(57, 53, 52, 1)" stroke-width="1.5"></path><path d="M1275.21 355.85L1276.95 526.5" stroke="rgba(57, 53, 52, 1)" stroke-width="1.5"></path><path d="M1275.21 355.85L1462.38 351.92" stroke="rgba(57, 53, 52, 1)" stroke-width="1.5"></path><path d="M1275.21 355.85L1455.2 251.98" stroke="rgba(57, 53, 52, 1)" stroke-width="1.5"></path><path d="M1275.21 355.85L1162.41 531.81" stroke="rgba(57, 53, 52, 1)" stroke-width="1.5"></path><path d="M1276.95 526.5L1276.95 526.5" stroke="rgba(57, 53, 52, 1)" stroke-width="1.5"></path><path d="M1276.95 526.5L1415.75 513.23" stroke="rgba(57, 53, 52, 1)" stroke-width="1.5"></path><path d="M1276.95 526.5L1285.86 676.7" stroke="rgba(57, 53, 52, 1)" stroke-width="1.5"></path><path d="M1276.95 526.5L1460.48 644.89" stroke="rgba(57, 53, 52, 1)" stroke-width="1.5"></path><path d="M1276.95 526.5L1131.98 695.8" stroke="rgba(57, 53, 52, 1)" stroke-width="1.5"></path><path d="M1285.86 676.7L1285.86 676.7" stroke="rgba(57, 53, 52, 1)" stroke-width="1.5"></path><path d="M1424.86 -107.66L1424.86 -107.66" stroke="rgba(57, 53, 52, 1)" stroke-width="1.5"></path><path d="M1424.86 -107.66L1587.72 -104.52" stroke="rgba(57, 53, 52, 1)" stroke-width="1.5"></path><path d="M1424.86 -107.66L1392.02 69.1" stroke="rgba(57, 53, 52, 1)" stroke-width="1.5"></path><path d="M1424.86 -107.66L1553.83 44.73" stroke="rgba(57, 53, 52, 1)" stroke-width="1.5"></path><path d="M1392.02 69.1L1392.02 69.1" stroke="rgba(57, 53, 52, 1)" stroke-width="1.5"></path><path d="M1392.02 69.1L1553.83 44.73" stroke="rgba(57, 53, 52, 1)" stroke-width="1.5"></path><path d="M1392.02 69.1L1455.2 251.98" stroke="rgba(57, 53, 52, 1)" stroke-width="1.5"></path><path d="M1455.2 251.98L1455.2 251.98" stroke="rgba(57, 53, 52, 1)" stroke-width="1.5"></path><path d="M1455.2 251.98L1462.38 351.92" stroke="rgba(57, 53, 52, 1)" stroke-width="1.5"></path><path d="M1455.2 251.98L1594.07 245.11" stroke="rgba(57, 53, 52, 1)" stroke-width="1.5"></path><path d="M1462.38 351.92L1462.38 351.92" stroke="rgba(57, 53, 52, 1)" stroke-width="1.5"></path><path d="M1462.38 351.92L1609.49 385.04" stroke="rgba(57, 53, 52, 1)" stroke-width="1.5"></path><path d="M1462.38 351.92L1415.75 513.23" stroke="rgba(57, 53, 52, 1)" stroke-width="1.5"></path><path d="M1462.38 351.92L1594.07 245.11" stroke="rgba(57, 53, 52, 1)" stroke-width="1.5"></path><path d="M1462.38 351.92L1242.31 226.36" stroke="rgba(57, 53, 52, 1)" stroke-width="1.5"></path><path d="M1415.75 513.23L1415.75 513.23" stroke="rgba(57, 53, 52, 1)" stroke-width="1.5"></path><path d="M1415.75 513.23L1460.48 644.89" stroke="rgba(57, 53, 52, 1)" stroke-width="1.5"></path><path d="M1460.48 644.89L1460.48 644.89" stroke="rgba(57, 53, 52, 1)" stroke-width="1.5"></path><path d="M1460.48 644.89L1587.43 695.04" stroke="rgba(57, 53, 52, 1)" stroke-width="1.5"></path><path d="M1460.48 644.89L1285.86 676.7" stroke="rgba(57, 53, 52, 1)" stroke-width="1.5"></path><path d="M1460.48 644.89L1462.38 351.92" stroke="rgba(57, 53, 52, 1)" stroke-width="1.5"></path><path d="M1587.72 -104.52L1587.72 -104.52" stroke="rgba(57, 53, 52, 1)" stroke-width="1.5"></path><path d="M1587.72 -104.52L1553.83 44.73" stroke="rgba(57, 53, 52, 1)" stroke-width="1.5"></path><path d="M1587.72 -104.52L1392.02 69.1" stroke="rgba(57, 53, 52, 1)" stroke-width="1.5"></path><path d="M1587.72 -104.52L1305.98 -79.81" stroke="rgba(57, 53, 52, 1)" stroke-width="1.5"></path><path d="M1553.83 44.73L1553.83 44.73" stroke="rgba(57, 53, 52, 1)" stroke-width="1.5"></path><path d="M1594.07 245.11L1594.07 245.11" stroke="rgba(57, 53, 52, 1)" stroke-width="1.5"></path><path d="M1594.07 245.11L1609.49 385.04" stroke="rgba(57, 53, 52, 1)" stroke-width="1.5"></path><path d="M1609.49 385.04L1609.49 385.04" stroke="rgba(57, 53, 52, 1)" stroke-width="1.5"></path><path d="M1609.49 385.04L1455.2 251.98" stroke="rgba(57, 53, 52, 1)" stroke-width="1.5"></path><path d="M1609.49 385.04L1415.75 513.23" stroke="rgba(57, 53, 52, 1)" stroke-width="1.5"></path><path d="M1609.49 385.04L1460.48 644.89" stroke="rgba(57, 53, 52, 1)" stroke-width="1.5"></path><path d="M1609.49 385.04L1587.43 695.04" stroke="rgba(57, 53, 52, 1)" stroke-width="1.5"></path><path d="M1587.43 695.04L1587.43 695.04" stroke="rgba(57, 53, 52, 1)" stroke-width="1.5"></path><path d="M1587.43 695.04L1415.75 513.23" stroke="rgba(57, 53, 52, 1)" stroke-width="1.5"></path><path d="M1587.43 695.04L1285.86 676.7" stroke="rgba(57, 53, 52, 1)" stroke-width="1.5"></path><circle r="5" cx="-86.24" cy="389.78" fill="rgba(57, 53, 52, 1)"></circle><circle r="5" cx="-40.79" cy="503.96" fill="rgba(57, 53, 52, 1)"></circle><circle r="5" cx="-86.42" cy="706.29" fill="rgba(57, 53, 52, 1)"></circle><circle r="5" cx="52.62" cy="362.7" fill="rgba(57, 53, 52, 1)"></circle><circle r="5" cx="74.48" cy="526.25" fill="rgba(57, 53, 52, 1)"></circle><circle r="5" cx="73.48" cy="647.6" fill="rgba(57, 53, 52, 1)"></circle><circle r="5" cx="248.55" cy="382.18" fill="rgba(57, 53, 52, 1)"></circle><circle r="5" cx="223.41" cy="523.39" fill="rgba(57, 53, 52, 1)"></circle><circle r="5" cx="210.74" cy="689.11" fill="rgba(57, 53, 52, 1)"></circle><circle r="5" cx="397.24" cy="378.78" fill="rgba(57, 53, 52, 1)"></circle><circle r="5" cx="370.72" cy="541.27" fill="rgba(57, 53, 52, 1)"></circle><circle r="5" cx="386.19" cy="687.69" fill="rgba(57, 53, 52, 1)"></circle><circle r="5" cx="552.89" cy="375.25" fill="rgba(57, 53, 52, 1)"></circle><circle r="5" cx="517.46" cy="518.83" fill="rgba(57, 53, 52, 1)"></circle><circle r="5" cx="512.07" cy="654.46" fill="rgba(57, 53, 52, 1)"></circle><circle r="5" cx="694.36" cy="235.29" fill="rgba(57, 53, 52, 1)"></circle><circle r="5" cx="702.94" cy="406.04" fill="rgba(57, 53, 52, 1)"></circle><circle r="5" cx="835.91" cy="92.46" fill="rgba(57, 53, 52, 1)"></circle><circle r="5" cx="803.96" cy="257.02" fill="rgba(57, 53, 52, 1)"></circle><circle r="5" cx="825.7" cy="389.23" fill="rgba(57, 53, 52, 1)"></circle><circle r="5" cx="831.83" cy="514.32" fill="rgba(57, 53, 52, 1)"></circle><circle r="5" cx="793.41" cy="674.31" fill="rgba(57, 53, 52, 1)"></circle><circle r="5" cx="983.57" cy="-76.58" fill="rgba(57, 53, 52, 1)"></circle><circle r="5" cx="1000.95" cy="73.21" fill="rgba(57, 53, 52, 1)"></circle><circle r="5" cx="954.86" cy="191.11" fill="rgba(57, 53, 52, 1)"></circle><circle r="5" cx="960.78" cy="339.39" fill="rgba(57, 53, 52, 1)"></circle><circle r="5" cx="965.62" cy="673.42" fill="rgba(57, 53, 52, 1)"></circle><circle r="5" cx="1117.95" cy="-100.11" fill="rgba(57, 53, 52, 1)"></circle><circle r="5" cx="1108.98" cy="56.39" fill="rgba(57, 53, 52, 1)"></circle><circle r="5" cx="1094.2" cy="221.16" fill="rgba(57, 53, 52, 1)"></circle><circle r="5" cx="1150.37" cy="339.73" fill="rgba(57, 53, 52, 1)"></circle><circle r="5" cx="1162.41" cy="531.81" fill="rgba(57, 53, 52, 1)"></circle><circle r="5" cx="1131.98" cy="695.8" fill="rgba(57, 53, 52, 1)"></circle><circle r="5" cx="1305.98" cy="-79.81" fill="rgba(57, 53, 52, 1)"></circle><circle r="5" cx="1270.32" cy="70.52" fill="rgba(57, 53, 52, 1)"></circle><circle r="5" cx="1242.31" cy="226.36" fill="rgba(57, 53, 52, 1)"></circle><circle r="5" cx="1275.21" cy="355.85" fill="rgba(57, 53, 52, 1)"></circle><circle r="5" cx="1276.95" cy="526.5" fill="rgba(57, 53, 52, 1)"></circle><circle r="5" cx="1285.86" cy="676.7" fill="rgba(57, 53, 52, 1)"></circle><circle r="5" cx="1424.86" cy="-107.66" fill="rgba(57, 53, 52, 1)"></circle><circle r="5" cx="1392.02" cy="69.1" fill="rgba(57, 53, 52, 1)"></circle><circle r="5" cx="1455.2" cy="251.98" fill="rgba(57, 53, 52, 1)"></circle><circle r="5" cx="1462.38" cy="351.92" fill="rgba(57, 53, 52, 1)"></circle><circle r="5" cx="1415.75" cy="513.23" fill="rgba(57, 53, 52, 1)"></circle><circle r="5" cx="1460.48" cy="644.89" fill="rgba(57, 53, 52, 1)"></circle><circle r="5" cx="1587.72" cy="-104.52" fill="rgba(57, 53, 52, 1)"></circle><circle r="5" cx="1553.83" cy="44.73" fill="rgba(57, 53, 52, 1)"></circle><circle r="5" cx="1594.07" cy="245.11" fill="rgba(57, 53, 52, 1)"></circle><circle r="5" cx="1609.49" cy="385.04" fill="rgba(57, 53, 52, 1)"></circle><circle r="5" cx="1587.43" cy="695.04" fill="rgba(57, 53, 52, 1)"></circle><path d="M338.6 702.15L338.6 702.15" stroke="hsl(37.30000000000001, 73.8%, 15.5%)" stroke-width="1.5"></path><path d="M338.6 702.15L256.96 709.5" stroke="hsl(37.30000000000001, 73.8%, 15.5%)" stroke-width="1.5"></path><path d="M338.6 702.15L501.49 703.44" stroke="hsl(37.30000000000001, 73.8%, 15.5%)" stroke-width="1.5"></path><path d="M961.67 653.33L961.67 653.33" stroke="hsl(37.30000000000001, 73.8%, 15.5%)" stroke-width="1.5"></path><path d="M961.67 653.33L996.5 511.73" stroke="hsl(37.30000000000001, 73.8%, 15.5%)" stroke-width="1.5"></path><path d="M961.67 653.33L1126.79 657.32" stroke="hsl(37.30000000000001, 73.8%, 15.5%)" stroke-width="1.5"></path><path d="M1157.21 83.94L1157.21 83.94" stroke="hsl(37.30000000000001, 73.8%, 15.5%)" stroke-width="1.5"></path><path d="M1157.21 83.94L1277.05 63.21" stroke="hsl(37.30000000000001, 73.8%, 15.5%)" stroke-width="1.5"></path><path d="M1157.21 83.94L1244.3 208.85" stroke="hsl(37.30000000000001, 73.8%, 15.5%)" stroke-width="1.5"></path><path d="M1157.21 83.94L1100.78 241.81" stroke="hsl(37.30000000000001, 73.8%, 15.5%)" stroke-width="1.5"></path><path d="M1126.79 657.32L1126.79 657.32" stroke="hsl(37.30000000000001, 73.8%, 15.5%)" stroke-width="1.5"></path><path d="M1126.79 657.32L1122.51 559.87" stroke="hsl(37.30000000000001, 73.8%, 15.5%)" stroke-width="1.5"></path><path d="M1126.79 657.32L1238.39 704.02" stroke="hsl(37.30000000000001, 73.8%, 15.5%)" stroke-width="1.5"></path><path d="M1126.79 657.32L1248.72 548.42" stroke="hsl(37.30000000000001, 73.8%, 15.5%)" stroke-width="1.5"></path><path d="M1277.05 63.21L1277.05 63.21" stroke="hsl(37.30000000000001, 73.8%, 15.5%)" stroke-width="1.5"></path><path d="M1277.05 63.21L1389.58 110.71" stroke="hsl(37.30000000000001, 73.8%, 15.5%)" stroke-width="1.5"></path><path d="M1277.05 63.21L1244.3 208.85" stroke="hsl(37.30000000000001, 73.8%, 15.5%)" stroke-width="1.5"></path><path d="M1277.05 63.21L1248.46 -100.32" stroke="hsl(37.30000000000001, 73.8%, 15.5%)" stroke-width="1.5"></path><path d="M1567.63 397.58L1567.63 397.58" stroke="hsl(37.30000000000001, 73.8%, 15.5%)" stroke-width="1.5"></path><path d="M1567.63 397.58L1542.99 519.48" stroke="hsl(37.30000000000001, 73.8%, 15.5%)" stroke-width="1.5"></path><path d="M1567.63 397.58L1403.35 338.41" stroke="hsl(37.30000000000001, 73.8%, 15.5%)" stroke-width="1.5"></path><path d="M1567.63 397.58L1611.29 224.19" stroke="hsl(37.30000000000001, 73.8%, 15.5%)" stroke-width="1.5"></path><path d="M1567.63 397.58L1394 508.79" stroke="hsl(37.30000000000001, 73.8%, 15.5%)" stroke-width="1.5"></path><path d="M-101.37 511.84L-101.37 511.84" stroke="hsl(37.30000000000001, 73.8%, 15.5%)" stroke-width="1.5"></path><path d="M-101.37 511.84L-98.2 667.8" stroke="hsl(37.30000000000001, 73.8%, 15.5%)" stroke-width="1.5"></path><path d="M-101.37 511.84L42.45 708.46" stroke="hsl(37.30000000000001, 73.8%, 15.5%)" stroke-width="1.5"></path><path d="M-101.37 511.84L258.3 491.13" stroke="hsl(37.30000000000001, 73.8%, 15.5%)" stroke-width="1.5"></path><path d="M-101.37 511.84L256.96 709.5" stroke="hsl(37.30000000000001, 73.8%, 15.5%)" stroke-width="1.5"></path><path d="M-101.37 511.84L342.91 495.34" stroke="hsl(37.30000000000001, 73.8%, 15.5%)" stroke-width="1.5"></path><path d="M-101.37 511.84L338.6 702.15" stroke="hsl(37.30000000000001, 73.8%, 15.5%)" stroke-width="1.5"></path><path d="M-98.2 667.8L-98.2 667.8" stroke="hsl(37.30000000000001, 73.8%, 15.5%)" stroke-width="1.5"></path><path d="M-98.2 667.8L42.45 708.46" stroke="hsl(37.30000000000001, 73.8%, 15.5%)" stroke-width="1.5"></path><path d="M-98.2 667.8L256.96 709.5" stroke="hsl(37.30000000000001, 73.8%, 15.5%)" stroke-width="1.5"></path><path d="M42.45 708.46L42.45 708.46" stroke="hsl(37.30000000000001, 73.8%, 15.5%)" stroke-width="1.5"></path><path d="M258.3 491.13L258.3 491.13" stroke="hsl(37.30000000000001, 73.8%, 15.5%)" stroke-width="1.5"></path><path d="M258.3 491.13L342.91 495.34" stroke="hsl(37.30000000000001, 73.8%, 15.5%)" stroke-width="1.5"></path><path d="M258.3 491.13L256.96 709.5" stroke="hsl(37.30000000000001, 73.8%, 15.5%)" stroke-width="1.5"></path><path d="M256.96 709.5L256.96 709.5" stroke="hsl(37.30000000000001, 73.8%, 15.5%)" stroke-width="1.5"></path><path d="M256.96 709.5L42.45 708.46" stroke="hsl(37.30000000000001, 73.8%, 15.5%)" stroke-width="1.5"></path><path d="M342.91 495.34L342.91 495.34" stroke="hsl(37.30000000000001, 73.8%, 15.5%)" stroke-width="1.5"></path><path d="M342.91 495.34L519.27 526.61" stroke="hsl(37.30000000000001, 73.8%, 15.5%)" stroke-width="1.5"></path><path d="M342.91 495.34L515.83 405.3" stroke="hsl(37.30000000000001, 73.8%, 15.5%)" stroke-width="1.5"></path><path d="M515.83 405.3L515.83 405.3" stroke="hsl(37.30000000000001, 73.8%, 15.5%)" stroke-width="1.5"></path><path d="M515.83 405.3L519.27 526.61" stroke="hsl(37.30000000000001, 73.8%, 15.5%)" stroke-width="1.5"></path><path d="M515.83 405.3L673.75 394.39" stroke="hsl(37.30000000000001, 73.8%, 15.5%)" stroke-width="1.5"></path><path d="M515.83 405.3L650.75 499.1" stroke="hsl(37.30000000000001, 73.8%, 15.5%)" stroke-width="1.5"></path><path d="M515.83 405.3L258.3 491.13" stroke="hsl(37.30000000000001, 73.8%, 15.5%)" stroke-width="1.5"></path><path d="M519.27 526.61L519.27 526.61" stroke="hsl(37.30000000000001, 73.8%, 15.5%)" stroke-width="1.5"></path><path d="M519.27 526.61L650.75 499.1" stroke="hsl(37.30000000000001, 73.8%, 15.5%)" stroke-width="1.5"></path><path d="M519.27 526.61L501.49 703.44" stroke="hsl(37.30000000000001, 73.8%, 15.5%)" stroke-width="1.5"></path><path d="M519.27 526.61L653.87 675.95" stroke="hsl(37.30000000000001, 73.8%, 15.5%)" stroke-width="1.5"></path><path d="M501.49 703.44L501.49 703.44" stroke="hsl(37.30000000000001, 73.8%, 15.5%)" stroke-width="1.5"></path><path d="M501.49 703.44L653.87 675.95" stroke="hsl(37.30000000000001, 73.8%, 15.5%)" stroke-width="1.5"></path><path d="M501.49 703.44L256.96 709.5" stroke="hsl(37.30000000000001, 73.8%, 15.5%)" stroke-width="1.5"></path><path d="M501.49 703.44L650.75 499.1" stroke="hsl(37.30000000000001, 73.8%, 15.5%)" stroke-width="1.5"></path><path d="M501.49 703.44L342.91 495.34" stroke="hsl(37.30000000000001, 73.8%, 15.5%)" stroke-width="1.5"></path><path d="M673.75 394.39L673.75 394.39" stroke="hsl(37.30000000000001, 73.8%, 15.5%)" stroke-width="1.5"></path><path d="M673.75 394.39L650.75 499.1" stroke="hsl(37.30000000000001, 73.8%, 15.5%)" stroke-width="1.5"></path><path d="M673.75 394.39L807.19 348.11" stroke="hsl(37.30000000000001, 73.8%, 15.5%)" stroke-width="1.5"></path><path d="M650.75 499.1L650.75 499.1" stroke="hsl(37.30000000000001, 73.8%, 15.5%)" stroke-width="1.5"></path><path d="M650.75 499.1L653.87 675.95" stroke="hsl(37.30000000000001, 73.8%, 15.5%)" stroke-width="1.5"></path><path d="M650.75 499.1L807.19 348.11" stroke="hsl(37.30000000000001, 73.8%, 15.5%)" stroke-width="1.5"></path><path d="M653.87 675.95L653.87 675.95" stroke="hsl(37.30000000000001, 73.8%, 15.5%)" stroke-width="1.5"></path><path d="M653.87 675.95L792.39 712.09" stroke="hsl(37.30000000000001, 73.8%, 15.5%)" stroke-width="1.5"></path><path d="M653.87 675.95L673.75 394.39" stroke="hsl(37.30000000000001, 73.8%, 15.5%)" stroke-width="1.5"></path><path d="M807.19 348.11L807.19 348.11" stroke="hsl(37.30000000000001, 73.8%, 15.5%)" stroke-width="1.5"></path><path d="M807.19 348.11L987.41 395.19" stroke="hsl(37.30000000000001, 73.8%, 15.5%)" stroke-width="1.5"></path><path d="M792.39 712.09L792.39 712.09" stroke="hsl(37.30000000000001, 73.8%, 15.5%)" stroke-width="1.5"></path><path d="M792.39 712.09L961.67 653.33" stroke="hsl(37.30000000000001, 73.8%, 15.5%)" stroke-width="1.5"></path><path d="M792.39 712.09L650.75 499.1" stroke="hsl(37.30000000000001, 73.8%, 15.5%)" stroke-width="1.5"></path><path d="M792.39 712.09L996.5 511.73" stroke="hsl(37.30000000000001, 73.8%, 15.5%)" stroke-width="1.5"></path><path d="M792.39 712.09L501.49 703.44" stroke="hsl(37.30000000000001, 73.8%, 15.5%)" stroke-width="1.5"></path><path d="M987.41 395.19L987.41 395.19" stroke="hsl(37.30000000000001, 73.8%, 15.5%)" stroke-width="1.5"></path><path d="M987.41 395.19L1102.52 399.34" stroke="hsl(37.30000000000001, 73.8%, 15.5%)" stroke-width="1.5"></path><path d="M987.41 395.19L996.5 511.73" stroke="hsl(37.30000000000001, 73.8%, 15.5%)" stroke-width="1.5"></path><path d="M987.41 395.19L1100.78 241.81" stroke="hsl(37.30000000000001, 73.8%, 15.5%)" stroke-width="1.5"></path><path d="M987.41 395.19L1122.51 559.87" stroke="hsl(37.30000000000001, 73.8%, 15.5%)" stroke-width="1.5"></path><path d="M996.5 511.73L996.5 511.73" stroke="hsl(37.30000000000001, 73.8%, 15.5%)" stroke-width="1.5"></path><path d="M996.5 511.73L1122.51 559.87" stroke="hsl(37.30000000000001, 73.8%, 15.5%)" stroke-width="1.5"></path><path d="M1100.78 241.81L1100.78 241.81" stroke="hsl(37.30000000000001, 73.8%, 15.5%)" stroke-width="1.5"></path><path d="M1100.78 241.81L1244.3 208.85" stroke="hsl(37.30000000000001, 73.8%, 15.5%)" stroke-width="1.5"></path><path d="M1100.78 241.81L1102.52 399.34" stroke="hsl(37.30000000000001, 73.8%, 15.5%)" stroke-width="1.5"></path><path d="M1100.78 241.81L1255.13 343.66" stroke="hsl(37.30000000000001, 73.8%, 15.5%)" stroke-width="1.5"></path><path d="M1100.78 241.81L1277.05 63.21" stroke="hsl(37.30000000000001, 73.8%, 15.5%)" stroke-width="1.5"></path><path d="M1102.52 399.34L1102.52 399.34" stroke="hsl(37.30000000000001, 73.8%, 15.5%)" stroke-width="1.5"></path><path d="M1102.52 399.34L996.5 511.73" stroke="hsl(37.30000000000001, 73.8%, 15.5%)" stroke-width="1.5"></path><path d="M1102.52 399.34L1122.51 559.87" stroke="hsl(37.30000000000001, 73.8%, 15.5%)" stroke-width="1.5"></path><path d="M1102.52 399.34L1255.13 343.66" stroke="hsl(37.30000000000001, 73.8%, 15.5%)" stroke-width="1.5"></path><path d="M1122.51 559.87L1122.51 559.87" stroke="hsl(37.30000000000001, 73.8%, 15.5%)" stroke-width="1.5"></path><path d="M1122.51 559.87L1248.72 548.42" stroke="hsl(37.30000000000001, 73.8%, 15.5%)" stroke-width="1.5"></path><path d="M1248.46 -100.32L1248.46 -100.32" stroke="hsl(37.30000000000001, 73.8%, 15.5%)" stroke-width="1.5"></path><path d="M1248.46 -100.32L1416.94 -41.29" stroke="hsl(37.30000000000001, 73.8%, 15.5%)" stroke-width="1.5"></path><path d="M1248.46 -100.32L1157.21 83.94" stroke="hsl(37.30000000000001, 73.8%, 15.5%)" stroke-width="1.5"></path><path d="M1244.3 208.85L1244.3 208.85" stroke="hsl(37.30000000000001, 73.8%, 15.5%)" stroke-width="1.5"></path><path d="M1244.3 208.85L1255.13 343.66" stroke="hsl(37.30000000000001, 73.8%, 15.5%)" stroke-width="1.5"></path><path d="M1255.13 343.66L1255.13 343.66" stroke="hsl(37.30000000000001, 73.8%, 15.5%)" stroke-width="1.5"></path><path d="M1255.13 343.66L1403.35 338.41" stroke="hsl(37.30000000000001, 73.8%, 15.5%)" stroke-width="1.5"></path><path d="M1255.13 343.66L1248.72 548.42" stroke="hsl(37.30000000000001, 73.8%, 15.5%)" stroke-width="1.5"></path><path d="M1248.72 548.42L1248.72 548.42" stroke="hsl(37.30000000000001, 73.8%, 15.5%)" stroke-width="1.5"></path><path d="M1248.72 548.42L1394 508.79" stroke="hsl(37.30000000000001, 73.8%, 15.5%)" stroke-width="1.5"></path><path d="M1248.72 548.42L1238.39 704.02" stroke="hsl(37.30000000000001, 73.8%, 15.5%)" stroke-width="1.5"></path><path d="M1238.39 704.02L1238.39 704.02" stroke="hsl(37.30000000000001, 73.8%, 15.5%)" stroke-width="1.5"></path><path d="M1416.94 -41.29L1416.94 -41.29" stroke="hsl(37.30000000000001, 73.8%, 15.5%)" stroke-width="1.5"></path><path d="M1416.94 -41.29L1389.58 110.71" stroke="hsl(37.30000000000001, 73.8%, 15.5%)" stroke-width="1.5"></path><path d="M1416.94 -41.29L1277.05 63.21" stroke="hsl(37.30000000000001, 73.8%, 15.5%)" stroke-width="1.5"></path><path d="M1389.58 110.71L1389.58 110.71" stroke="hsl(37.30000000000001, 73.8%, 15.5%)" stroke-width="1.5"></path><path d="M1389.58 110.71L1427.94 218.04" stroke="hsl(37.30000000000001, 73.8%, 15.5%)" stroke-width="1.5"></path><path d="M1389.58 110.71L1244.3 208.85" stroke="hsl(37.30000000000001, 73.8%, 15.5%)" stroke-width="1.5"></path><path d="M1427.94 218.04L1427.94 218.04" stroke="hsl(37.30000000000001, 73.8%, 15.5%)" stroke-width="1.5"></path><path d="M1427.94 218.04L1403.35 338.41" stroke="hsl(37.30000000000001, 73.8%, 15.5%)" stroke-width="1.5"></path><path d="M1427.94 218.04L1611.29 224.19" stroke="hsl(37.30000000000001, 73.8%, 15.5%)" stroke-width="1.5"></path><path d="M1427.94 218.04L1244.3 208.85" stroke="hsl(37.30000000000001, 73.8%, 15.5%)" stroke-width="1.5"></path><path d="M1427.94 218.04L1255.13 343.66" stroke="hsl(37.30000000000001, 73.8%, 15.5%)" stroke-width="1.5"></path><path d="M1427.94 218.04L1277.05 63.21" stroke="hsl(37.30000000000001, 73.8%, 15.5%)" stroke-width="1.5"></path><path d="M1403.35 338.41L1403.35 338.41" stroke="hsl(37.30000000000001, 73.8%, 15.5%)" stroke-width="1.5"></path><path d="M1394 508.79L1394 508.79" stroke="hsl(37.30000000000001, 73.8%, 15.5%)" stroke-width="1.5"></path><path d="M1394 508.79L1542.99 519.48" stroke="hsl(37.30000000000001, 73.8%, 15.5%)" stroke-width="1.5"></path><path d="M1394 508.79L1403.35 338.41" stroke="hsl(37.30000000000001, 73.8%, 15.5%)" stroke-width="1.5"></path><path d="M1455.77 694.21L1455.77 694.21" stroke="hsl(37.30000000000001, 73.8%, 15.5%)" stroke-width="1.5"></path><path d="M1455.77 694.21L1603.65 666.09" stroke="hsl(37.30000000000001, 73.8%, 15.5%)" stroke-width="1.5"></path><path d="M1455.77 694.21L1542.99 519.48" stroke="hsl(37.30000000000001, 73.8%, 15.5%)" stroke-width="1.5"></path><path d="M1455.77 694.21L1394 508.79" stroke="hsl(37.30000000000001, 73.8%, 15.5%)" stroke-width="1.5"></path><path d="M1455.77 694.21L1238.39 704.02" stroke="hsl(37.30000000000001, 73.8%, 15.5%)" stroke-width="1.5"></path><path d="M1455.77 694.21L1248.72 548.42" stroke="hsl(37.30000000000001, 73.8%, 15.5%)" stroke-width="1.5"></path><path d="M1455.77 694.21L1567.63 397.58" stroke="hsl(37.30000000000001, 73.8%, 15.5%)" stroke-width="1.5"></path><path d="M1597.76 -83.87L1597.76 -83.87" stroke="hsl(37.30000000000001, 73.8%, 15.5%)" stroke-width="1.5"></path><path d="M1597.76 -83.87L1604.35 85.88" stroke="hsl(37.30000000000001, 73.8%, 15.5%)" stroke-width="1.5"></path><path d="M1597.76 -83.87L1416.94 -41.29" stroke="hsl(37.30000000000001, 73.8%, 15.5%)" stroke-width="1.5"></path><path d="M1597.76 -83.87L1389.58 110.71" stroke="hsl(37.30000000000001, 73.8%, 15.5%)" stroke-width="1.5"></path><path d="M1604.35 85.88L1604.35 85.88" stroke="hsl(37.30000000000001, 73.8%, 15.5%)" stroke-width="1.5"></path><path d="M1604.35 85.88L1611.29 224.19" stroke="hsl(37.30000000000001, 73.8%, 15.5%)" stroke-width="1.5"></path><path d="M1604.35 85.88L1389.58 110.71" stroke="hsl(37.30000000000001, 73.8%, 15.5%)" stroke-width="1.5"></path><path d="M1611.29 224.19L1611.29 224.19" stroke="hsl(37.30000000000001, 73.8%, 15.5%)" stroke-width="1.5"></path><path d="M1542.99 519.48L1542.99 519.48" stroke="hsl(37.30000000000001, 73.8%, 15.5%)" stroke-width="1.5"></path><path d="M1542.99 519.48L1603.65 666.09" stroke="hsl(37.30000000000001, 73.8%, 15.5%)" stroke-width="1.5"></path><path d="M1542.99 519.48L1403.35 338.41" stroke="hsl(37.30000000000001, 73.8%, 15.5%)" stroke-width="1.5"></path><path d="M1603.65 666.09L1603.65 666.09" stroke="hsl(37.30000000000001, 73.8%, 15.5%)" stroke-width="1.5"></path><circle r="25" cx="338.6" cy="702.15" fill="url(&quot;#SvgjsRadialGradient1021&quot;)"></circle><circle r="25" cx="961.67" cy="653.33" fill="url(&quot;#SvgjsRadialGradient1021&quot;)"></circle><circle r="25" cx="1157.21" cy="83.94" fill="url(&quot;#SvgjsRadialGradient1021&quot;)"></circle><circle r="25" cx="1126.79" cy="657.32" fill="url(&quot;#SvgjsRadialGradient1021&quot;)"></circle><circle r="25" cx="1277.05" cy="63.21" fill="url(&quot;#SvgjsRadialGradient1021&quot;)"></circle><circle r="25" cx="1567.63" cy="397.58" fill="url(&quot;#SvgjsRadialGradient1021&quot;)"></circle><circle r="5" cx="-101.37" cy="511.84" fill="#9a9284"></circle><circle r="5" cx="-98.2" cy="667.8" fill="#9a9284"></circle><circle r="5" cx="42.45" cy="708.46" fill="#9a9284"></circle><circle r="5" cx="258.3" cy="491.13" fill="#9a9284"></circle><circle r="5" cx="256.96" cy="709.5" fill="#9a9284"></circle><circle r="5" cx="342.91" cy="495.34" fill="#9a9284"></circle><circle r="5" cx="515.83" cy="405.3" fill="#9a9284"></circle><circle r="5" cx="519.27" cy="526.61" fill="#9a9284"></circle><circle r="5" cx="501.49" cy="703.44" fill="#9a9284"></circle><circle r="5" cx="673.75" cy="394.39" fill="#9a9284"></circle><circle r="5" cx="650.75" cy="499.1" fill="#9a9284"></circle><circle r="5" cx="653.87" cy="675.95" fill="#9a9284"></circle><circle r="5" cx="807.19" cy="348.11" fill="#9a9284"></circle><circle r="5" cx="792.39" cy="712.09" fill="#9a9284"></circle><circle r="5" cx="987.41" cy="395.19" fill="#9a9284"></circle><circle r="5" cx="996.5" cy="511.73" fill="#9a9284"></circle><circle r="5" cx="1100.78" cy="241.81" fill="#9a9284"></circle><circle r="5" cx="1102.52" cy="399.34" fill="#9a9284"></circle><circle r="5" cx="1122.51" cy="559.87" fill="#9a9284"></circle><circle r="5" cx="1248.46" cy="-100.32" fill="#9a9284"></circle><circle r="5" cx="1244.3" cy="208.85" fill="#9a9284"></circle><circle r="5" cx="1255.13" cy="343.66" fill="#9a9284"></circle><circle r="5" cx="1248.72" cy="548.42" fill="#9a9284"></circle><circle r="5" cx="1238.39" cy="704.02" fill="#9a9284"></circle><circle r="5" cx="1416.94" cy="-41.29" fill="#9a9284"></circle><circle r="5" cx="1389.58" cy="110.71" fill="#9a9284"></circle><circle r="5" cx="1427.94" cy="218.04" fill="#9a9284"></circle><circle r="5" cx="1403.35" cy="338.41" fill="#9a9284"></circle><circle r="5" cx="1394" cy="508.79" fill="#9a9284"></circle><circle r="5" cx="1455.77" cy="694.21" fill="#9a9284"></circle><circle r="5" cx="1597.76" cy="-83.87" fill="#9a9284"></circle><circle r="5" cx="1604.35" cy="85.88" fill="#9a9284"></circle><circle r="5" cx="1611.29" cy="224.19" fill="#9a9284"></circle><circle r="5" cx="1542.99" cy="519.48" fill="#9a9284"></circle><circle r="5" cx="1603.65" cy="666.09" fill="#9a9284"></circle></g><defs><mask id="SvgjsMask1020"><rect width="1440" height="560" fill="#ffffff"></rect></mask><radialGradient id="SvgjsRadialGradient1021"><stop stop-color="#ffffff" offset="0.1"></stop><stop stop-color="rgba(53, 36, 8, 1)" offset="0.2"></stop><stop stop-color="rgba(53, 36, 8, 0)" offset="1"></stop></radialGradient></defs></svg>